<?xml version="1.0" encoding="UTF-8"?>
<!DOCTYPE svg PUBLIC "-//W3C//DTD SVG 1.1//EN" "http://www.w3.org/Graphics/SVG/1.1/DTD/svg11.dtd">
<!-- Creator: CorelDRAW -->
<svg xmlns="http://www.w3.org/2000/svg" xml:space="preserve" width="4.77847in" height="5.33333in" version="1.1" style="shape-rendering:geometricPrecision; text-rendering:geometricPrecision; image-rendering:optimizeQuality; fill-rule:evenodd; clip-rule:evenodd"
viewBox="0 0 330.56 368.94"
 xmlns:xlink="http://www.w3.org/1999/xlink"
 xmlns:xodm="http://www.corel.com/coreldraw/odm/2003"
 enable-background="new 0 0 512 512">
 <defs>
  <style type="text/css">
   <![CDATA[
    .fil0 {fill:#E90401;fill-rule:nonzero}
   ]]>
  </style>
 </defs>
 <g id="Layer_x0020_1">
  <metadata id="CorelCorpID_0Corel-Layer"/>
  <g id="_1957540779232">
   <g>
    <g>
     <path class="fil0" d="M275.4 158.85l-29.32 0c-2.98,0 -5.4,2.42 -5.4,5.4 0,2.98 2.42,5.4 5.4,5.4l29.32 -0c2.98,0 5.4,-2.42 5.4,-5.4 0,-2.98 -2.42,-5.4 -5.4,-5.4l0 0z"/>
     <path class="fil0" d="M275.4 181.77l-29.32 0c-2.98,0 -5.4,2.42 -5.4,5.4 0,2.98 2.42,5.4 5.4,5.4l29.32 0c2.98,0 5.4,-2.42 5.4,-5.4 0,-2.98 -2.42,-5.4 -5.4,-5.4z"/>
     <path class="fil0" d="M275.4 204.69l-29.32 0c-2.98,0 -5.4,2.42 -5.4,5.4 0,2.98 2.42,5.4 5.4,5.4l29.32 0c2.98,0 5.4,-2.42 5.4,-5.4 0,-2.98 -2.42,-5.4 -5.4,-5.4z"/>
     <path class="fil0" d="M157.97 192.58l7.31 0c2.98,0 5.4,-2.42 5.4,-5.4 0,-2.98 -2.42,-5.4 -5.4,-5.4l-7.31 0c-2.98,0 -5.4,2.42 -5.4,5.4 0,2.98 2.42,5.4 5.4,5.4z"/>
     <path class="fil0" d="M177.17 187.17c0,2.98 2.42,5.4 5.4,5.4l22.24 0c2.98,0 5.4,-2.42 5.4,-5.4 0,-2.98 -2.42,-5.4 -5.4,-5.4l-22.24 0c-2.98,0 -5.4,2.42 -5.4,5.4z"/>
     <path class="fil0" d="M204.81 204.69l-46.84 0c-2.98,0 -5.4,2.42 -5.4,5.4 0,2.98 2.42,5.4 5.4,5.4l46.84 0c2.98,0 5.4,-2.42 5.4,-5.4 0,-2.98 -2.42,-5.4 -5.4,-5.4z"/>
     <path class="fil0" d="M204.81 227.62l-46.84 0c-2.98,0 -5.4,2.42 -5.4,5.4 0,2.98 2.42,5.4 5.4,5.4l46.84 0c2.98,0 5.4,-2.42 5.4,-5.4 0,-2.98 -2.42,-5.4 -5.4,-5.4z"/>
     <path class="fil0" d="M275.4 227.62l-29.32 0c-2.98,0 -5.4,2.42 -5.4,5.4 0,2.98 2.42,5.4 5.4,5.4l29.32 0c2.98,0 5.4,-2.42 5.4,-5.4 0,-2.98 -2.42,-5.4 -5.4,-5.4z"/>
     <path class="fil0" d="M275.4 250.54l-29.32 0c-2.98,0 -5.4,2.42 -5.4,5.4 0,2.98 2.42,5.4 5.4,5.4l29.32 0c2.98,0 5.4,-2.42 5.4,-5.4 0,-2.98 -2.42,-5.4 -5.4,-5.4z"/>
     <path class="fil0" d="M275.4 273.46l-29.32 0c-2.98,0 -5.4,2.42 -5.4,5.4 0,2.98 2.42,5.4 5.4,5.4l29.32 0c2.98,0 5.4,-2.42 5.4,-5.4 0,-2.98 -2.42,-5.4 -5.4,-5.4z"/>
     <path class="fil0" d="M138.21 145.47l137.19 0c2.98,0 5.4,-2.42 5.4,-5.4l0 -46.84c0,-2.98 -2.42,-5.4 -5.4,-5.4l-137.19 0c-2.98,0 -5.4,2.42 -5.4,5.4l0 46.84c0,2.98 2.42,5.4 5.4,5.4zm5.4 -23.42l82.66 0 0 12.61 -82.66 0 0 -12.61zm126.39 12.61l-32.92 0 0 -12.61 32.92 0 0 12.61zm0 -36.03l0 12.61 -32.92 0 0 -12.61 32.92 -0zm-126.39 0l82.66 0 0 12.61 -82.66 0 0 -12.61z"/>
     <path class="fil0" d="M30.99 280.31c0,2.98 2.42,5.4 5.4,5.4 2.98,0 5.4,-2.42 5.4,-5.4l0 -49.13c17.14,-2.77 30.26,-17.66 30.26,-35.56 0,-19.87 -16.16,-36.03 -36.03,-36.03 -19.87,0 -36.03,16.16 -36.03,36.03 0,18.15 13.5,33.21 30.99,35.67l0 49.02zm-20.18 -84.69c0,-13.91 11.31,-25.22 25.22,-25.22 13.91,0 25.22,11.31 25.22,25.22 0,13.91 -11.31,25.22 -25.22,25.22 -13.91,0 -25.22,-11.31 -25.22,-25.22z"/>
     <path class="fil0" d="M52.24 195.62c0,-8.94 -7.27,-16.21 -16.21,-16.21 -8.94,0 -16.21,7.27 -16.21,16.21 0,8.94 7.27,16.21 16.21,16.21 8.94,0 16.21,-7.27 16.21,-16.21zm-21.62 0c0,-2.98 2.42,-5.4 5.4,-5.4 2.98,0 5.4,2.42 5.4,5.4 0,2.98 -2.42,5.4 -5.4,5.4 -2.98,0 -5.4,-2.42 -5.4,-5.4z"/>
     <path class="fil0" d="M310.74 28.05l-72.55 0c-1.77,-15.76 -15.17,-28.05 -31.39,-28.05 -16.22,0 -29.62,12.29 -31.39,28.05l-72.55 0c-10.93,0 -19.82,8.89 -19.82,19.82l0 274.85c0,10.93 8.89,19.82 19.82,19.82l70.59 0c-4.31,9.21 -13.66,15.61 -24.49,15.61l-80.15 0c-14.9,0 -27.02,-12.12 -27.02,-27.02l0 -25.58c0,-2.98 -2.42,-5.4 -5.4,-5.4 -2.98,0 -5.4,2.42 -5.4,5.4l0 25.58c0,20.86 16.97,37.83 37.83,37.83l80.15 0c16.88,0 31.21,-11.12 36.07,-26.42l125.71 0c10.93,0 19.82,-8.89 19.82,-19.82l0 -274.85c0,-10.93 -8.89,-19.82 -19.82,-19.82l0 -0zm-103.94 -17.24c10.25,0 18.8,7.46 20.49,17.24l-40.97 0c1.69,-9.78 10.23,-17.24 20.49,-17.24zm-103.94 320.91c-4.97,0 -9.01,-4.04 -9.01,-9.01l0 -274.85c0,-4.97 4.04,-9.01 9.01,-9.01l47.6 0 0 13.45 -34.16 0c-4.97,0 -9.01,4.04 -9.01,9.01l0 97.22c0,2.98 2.42,5.4 5.4,5.4 2.98,0 5.4,-2.42 5.4,-5.4l0 -95.42 33.3 -0c2.25,6.26 8.24,10.75 15.26,10.75l11.57 0c2.98,0 5.4,-2.42 5.4,-5.4 0,-2.98 -2.42,-5.4 -5.4,-5.4l-11.57 0c-2.96,0 -5.37,-2.39 -5.4,-5.34 0,-0 0,-0 0,-0 0,-0.02 -0,-0.04 -0,-0.06l0 -18.79 91.06 0 0 18.79c0,0.02 -0,0.04 -0,0.06l0 0c-0.03,2.95 -2.44,5.34 -5.4,5.34l-43.46 0c-2.98,0 -5.4,2.42 -5.4,5.4 0,2.98 2.42,5.4 5.4,5.4l43.46 -0c7.02,0 13.02,-4.49 15.26,-10.75l33.3 0 0 244.35 -108.7 0 0 -14.76c24.26,-2.7 43.2,-23.32 43.2,-48.29l0 -75.42c0,-6.95 -5.66,-12.61 -12.61,-12.61l-10.57 -0 0 -0.01c0,-2.98 -2.42,-5.4 -5.4,-5.4 -2.98,0 -5.4,2.42 -5.4,5.4l0 10.09c0,2.98 2.42,5.4 5.4,5.4 2.74,0 4.99,-2.04 5.35,-4.68l10.63 0c0.99,0 1.8,0.81 1.8,1.8l0 54.07c0,20.84 -16.95,37.79 -37.79,37.79 -20.84,0 -37.79,-16.95 -37.79,-37.79l0 -54.07c0,-0.99 0.81,-1.8 1.8,-1.8l11.02 0c0.36,2.64 2.61,4.68 5.35,4.68 2.98,0 5.4,-2.42 5.4,-5.4l0 -10.09c0,-2.98 -2.42,-5.4 -5.4,-5.4 -2.98,0 -5.4,2.42 -5.4,5.4l0 0.01 -10.97 0c-6.95,0 -12.61,5.66 -12.61,12.61l0 75.42c0,24.97 18.93,45.6 43.2,48.29l0 14.76 -57.88 0 0 -123.71c0,-2.98 -2.42,-5.4 -5.4,-5.4 -2.98,0 -5.4,2.42 -5.4,5.4l0 125.51c0,4.97 4.04,9.01 9.01,9.01l59.68 0 0 12.84c0,0.2 -0.01,0.4 -0.02,0.61l-73.11 0zm78.53 -49.52c-16.97,0 -31.36,-11.24 -36.12,-26.67 8.9,9.89 21.8,16.12 36.12,16.12 14.32,0 27.22,-6.23 36.12,-16.12 -4.76,15.43 -19.15,26.67 -36.12,26.67zm138.36 40.51c0,4.97 -4.04,9.01 -9.01,9.01l-123.96 0c0,-0.2 0.02,-0.4 0.02,-0.61l0 -12.84 110.5 0c4.97,0 9.01,-4.04 9.01,-9.01l0 -247.96c0,-4.97 -4.04,-9.01 -9.01,-9.01l-34.16 0 0 -13.45 47.6 -0c4.97,0 9.01,4.04 9.01,9.01l0 274.85z"/>
    </g>
   </g>
  </g>
 </g>
</svg>
