<?xml version="1.0" encoding="utf-8"?>
<!-- Generator: Adobe Illustrator 26.0.1, SVG Export Plug-In . SVG Version: 6.00 Build 0)  -->
<svg version="1.1" id="Layer_1" xmlns="http://www.w3.org/2000/svg" xmlns:xlink="http://www.w3.org/1999/xlink" x="0px" y="0px"
	 viewBox="0 0 500 81.64" style="enable-background:new 0 0 500 81.64;" xml:space="preserve">
<style type="text/css">
	.st0{fill:#6C9A40;}
	.st1{fill:#2E3F99;}
	.st2{fill:url(#XMLID_00000025413544249345200620000016320750558277503894_);}
	.st3{fill:url(#XMLID_00000160876195232840434690000012363160519271333294_);}
	.st4{fill:url(#XMLID_00000142165782812753734950000006262457165271945097_);}
	.st5{fill:url(#XMLID_00000026129942888653950030000016865470609309601679_);}
	.st6{fill-rule:evenodd;clip-rule:evenodd;fill:url(#SVGID_1_);}
	.st7{fill:#2D4297;}
</style>
<g>
	<path class="st0" d="M81.21,41.96c0-1.14,0.92-2.06,2.06-2.06c1.14,0,2.06,0.92,2.06,2.06c0,9.05-3.67,17.24-9.6,23.17
		c-5.93,5.93-14.12,9.6-23.17,9.6c-1.08,0-2.19-0.06-3.32-0.17c-1.11-0.11-2.2-0.28-3.28-0.5c-1.07-0.22-2.11-0.49-3.12-0.8
		c-1.02-0.32-2.03-0.69-3.03-1.11c-1.03-0.43-1.98-0.89-2.86-1.37v-0.01c-0.96-0.52-1.87-1.07-2.71-1.64
		c-0.84-0.57-1.68-1.2-2.51-1.89c-0.85-0.7-1.63-1.41-2.34-2.11c-0.71-0.71-1.41-1.49-2.11-2.34c-0.69-0.84-1.32-1.68-1.89-2.51
		c-0.6-0.88-1.15-1.79-1.65-2.71c-0.48-0.88-0.94-1.84-1.37-2.86c-0.44-1.04,0.05-2.24,1.09-2.68c1.04-0.44,2.24,0.05,2.68,1.09
		c0.34,0.8,0.74,1.64,1.21,2.49c0.45,0.82,0.93,1.62,1.44,2.37c0.54,0.79,1.08,1.53,1.65,2.21c0.55,0.67,1.17,1.35,1.86,2.03
		c0.68,0.68,1.36,1.3,2.03,1.86c0.68,0.56,1.42,1.11,2.21,1.65c0.8,0.54,1.59,1.02,2.37,1.45l0-0.01c0.85,0.46,1.69,0.87,2.49,1.21
		c0.85,0.36,1.73,0.68,2.65,0.97c0.9,0.28,1.82,0.52,2.73,0.7c0.94,0.19,1.89,0.34,2.87,0.44c0.91,0.09,1.87,0.14,2.88,0.14
		c0.16-2.93,0.93-7.21,3.83-9.69c4.7-4.02,8.6-1.63,14.04-9.17c0,0,1.06-0.99,1.63-0.33c0.48,0.56,0.83,3.86-3.23,7.83
		c-0.83,0.81-3.19,2.61-2.93,3.11c0.2,0.39,11.03-2.32,14.57-13.78C80.94,46.47,81.21,44.25,81.21,41.96"/>
	<path class="st1" d="M23.89,41.96c0,1.14-0.92,2.06-2.06,2.06c-1.14,0-2.06-0.92-2.06-2.06c0-9.05,3.67-17.24,9.6-23.17
		c5.93-5.93,14.12-9.6,23.17-9.6c1.08,0,2.19,0.06,3.32,0.17c1.11,0.11,2.2,0.28,3.28,0.5c1.07,0.22,2.11,0.49,3.12,0.8
		c1.02,0.32,2.03,0.69,3.03,1.11c1.03,0.43,1.98,0.89,2.86,1.37v0.01c0.96,0.52,1.87,1.07,2.71,1.64c0.84,0.57,1.68,1.2,2.51,1.89
		c0.85,0.7,1.63,1.41,2.34,2.11c0.71,0.71,1.41,1.49,2.11,2.34c0.69,0.84,1.32,1.68,1.89,2.51c0.6,0.88,1.15,1.79,1.65,2.71
		c0.48,0.88,0.94,1.84,1.37,2.86c0.44,1.04-0.05,2.24-1.09,2.68c-1.04,0.44-2.24-0.05-2.68-1.09c-0.34-0.81-0.74-1.64-1.21-2.49
		c-0.45-0.82-0.93-1.62-1.44-2.37c-0.54-0.79-1.08-1.53-1.65-2.21c-0.55-0.67-1.17-1.35-1.86-2.03c-0.68-0.68-1.36-1.3-2.03-1.86
		c-0.68-0.56-1.42-1.11-2.21-1.65c-0.8-0.54-1.59-1.02-2.37-1.45l0,0.01c-0.85-0.46-1.69-0.87-2.49-1.21
		c-0.85-0.36-1.73-0.68-2.65-0.97c-0.9-0.28-1.82-0.52-2.73-0.7c-0.94-0.19-1.89-0.34-2.87-0.44c-0.91-0.09-1.87-0.14-2.88-0.14
		c-0.16,2.93-0.93,7.21-3.83,9.69c-4.7,4.02-8.6,1.63-14.04,9.17c0,0-1.06,0.99-1.63,0.33c-0.48-0.56-0.83-3.86,3.23-7.83
		c0.83-0.81,3.19-2.61,2.93-3.11c-0.2-0.39-11.04,2.33-14.58,13.78C24.16,37.45,23.89,39.68,23.89,41.96"/>
	<g id="XMLID_00000136375985630696277210000017577584089913406349_">
		
			<linearGradient id="XMLID_00000121261937709968351690000010567963119708032687_" gradientUnits="userSpaceOnUse" x1="12595.7539" y1="-2953.28" x2="12595.7539" y2="-2966.7117" gradientTransform="matrix(-1 0 0 -1 12648.3037 -2911.9524)">
			<stop  offset="0" style="stop-color:#F04F3F"/>
			<stop  offset="1" style="stop-color:#C42127"/>
		</linearGradient>
		
			<path id="XMLID_00000169550865237692741210000011357358547854569907_" style="fill:url(#XMLID_00000121261937709968351690000010567963119708032687_);" d="
			M48.67,45.87l0,8.89l7.81,0l0-8.89l8.89,0v-4.54c0,0-10.2,3.7-25.65,4.54H48.67z"/>
		
			<linearGradient id="XMLID_00000052088225963834342740000006015508527887044998_" gradientUnits="userSpaceOnUse" x1="12588.9824" y1="-2962.4282" x2="12596.3682" y2="-2955.0425" gradientTransform="matrix(-1 0 0 -1 12648.3037 -2911.9524)">
			<stop  offset="0.3878" style="stop-color:#E01F26;stop-opacity:0"/>
			<stop  offset="1" style="stop-color:#F68D5A"/>
		</linearGradient>
		
			<path id="XMLID_00000080178276057159634960000002069689177698518914_" style="fill:url(#XMLID_00000052088225963834342740000006015508527887044998_);" d="
			M64.65,45.15h-8.89v8.89h-6.37v-8.4c3.69-0.52,6.79-1.14,9.1-1.67c2.94-0.67,5.04-1.3,6.16-1.66L64.65,45.15z"/>
		
			<linearGradient id="XMLID_00000116201785018211218820000007950824636119308475_" gradientUnits="userSpaceOnUse" x1="12598.668" y1="-2941.1145" x2="12598.668" y2="-2957.2244" gradientTransform="matrix(-1 0 0 -1 12648.3037 -2911.9524)">
			<stop  offset="0" style="stop-color:#C42127"/>
			<stop  offset="1" style="stop-color:#E01F26"/>
		</linearGradient>
		
			<path id="XMLID_00000109738453126331866530000015028975209561008528_" style="fill:url(#XMLID_00000116201785018211218820000007950824636119308475_);" d="
			M59.54,38.05l-3.06,0l0-8.89l-7.81,0v8.89l-8.93,0l0,7.22C43.54,44.61,53.72,42.5,59.54,38.05z"/>
		
			<linearGradient id="XMLID_00000142139820693291118820000017471304727861801646_" gradientUnits="userSpaceOnUse" x1="12599.4658" y1="-2941.8354" x2="12599.4658" y2="-2956.3755" gradientTransform="matrix(-1 0 0 -1 12648.3037 -2911.9524)">
			<stop  offset="0.3878" style="stop-color:#E01F26;stop-opacity:0"/>
			<stop  offset="1" style="stop-color:#F68D5A"/>
		</linearGradient>
		
			<path id="XMLID_00000080905392814329269850000014534041113893492409_" style="fill:url(#XMLID_00000142139820693291118820000017471304727861801646_);" d="
			M55.76,29.88v8.89h1.46c-5.32,3.2-12.84,4.92-16.76,5.65v-5.65h8.93l0-8.89L55.76,29.88z"/>
	</g>
	
		<linearGradient id="SVGID_1_" gradientUnits="userSpaceOnUse" x1="4430.186" y1="4764.8457" x2="4446.0288" y2="4784.9146" gradientTransform="matrix(0.5271 0.8498 -0.8498 0.5271 1786.3389 -6258.3389)">
		<stop  offset="0" style="stop-color:#222A5F"/>
		<stop  offset="1" style="stop-color:#186CAB"/>
	</linearGradient>
	<path class="st6" d="M63.13,38.36l0.52,3.03l1.2-1.09l0.06-2.01l3.25-2.96l1.88,6.2l1.57-1.75l-0.2-2.28l1.2-1.09l-0.45-0.48
		l-0.81,0.73l-0.05-0.48l1.21-1.11l-0.56-0.62l-0.74,0.67L71,32.95c1.55-1.13,2.39-2.49,2.55-4.06c-1.58-0.01-3.01,0.71-4.29,2.15
		l-2.16-0.4l0.74-0.67l-0.56-0.63l-1.21,1.11l-0.49-0.09l0.83-0.74l-0.46-0.49l-1.19,1.08l-2.25-0.42l-1.88,1.39l5.98,2.46
		l-3.25,2.96l-1.99-0.13l-1.21,1.09L63.13,38.36z"/>
</g>
<g>
	<g>
		<g>
			<path class="st1" d="M100.97,24.89l18.54,22.98V30.99c0-3.32-0.24-5.46-2.54-5.46v-0.63h10.93v0.63c-2.54,0-2.54,2.59-2.54,6.44
				v20c0,3.85,0,6.44,2.54,6.44v0.63h-6.63l-17.9-21.95v14.88c0,3.85,0,6.44,2.54,6.44v0.63H94.97V58.4c2.54,0,2.54-2.59,2.54-6.44
				v-20c0-3.85,0-6.44-2.54-6.44v-0.63H100.97z"/>
			<path class="st7" d="M128.58,59.72h-7.64L104.04,39v12.96c0,4.27,0.15,5.76,1.86,5.76h0.68v2H94.29v-2h0.68
				c1.7,0,1.85-1.49,1.85-5.76v-20c0-4.27-0.15-5.76-1.85-5.76h-0.68v-2h7.01l17.53,21.73V30.99c0-3.71-0.42-4.78-1.86-4.78h-0.68
				v-2h12.29v2h-0.68c-1.7,0-1.85,1.49-1.85,5.76v20c0,4.27,0.15,5.76,1.85,5.76h0.68V59.72z M121.59,58.35h4.29
				c-0.39-0.37-0.67-0.89-0.86-1.54c-0.34-1.22-0.34-2.9-0.34-4.85v-20c0-1.95,0-3.63,0.34-4.85c0.18-0.66,0.47-1.17,0.86-1.54
				h-6.89c0.32,0.31,0.57,0.71,0.75,1.21c0.37,1.03,0.45,2.37,0.45,4.21v18.81l-19.54-24.22h-3.66c0.39,0.37,0.67,0.89,0.86,1.54
				c0.34,1.22,0.34,2.9,0.34,4.85v20c0,1.95,0,3.63-0.34,4.85c-0.18,0.66-0.47,1.17-0.86,1.54h6.89c-0.39-0.37-0.67-0.89-0.86-1.54
				c-0.34-1.22-0.34-2.9-0.34-4.85V35.17L121.59,58.35z"/>
		</g>
		<g>
			<path class="st1" d="M149.65,59.81c-8.83,0-17.61-5.95-17.61-17.85s8.78-17.85,17.61-17.85c3.22,0,6.49,0.83,9.32,2.44
				c2.78-1.61,6.05-2.44,9.32-2.44c8.78,0,17.56,5.95,17.56,17.85s-8.78,17.85-17.56,17.85c-3.27,0-6.54-0.83-9.32-2.44
				C156.14,58.99,152.87,59.81,149.65,59.81z M161.21,44.69c0.2-0.83,0.29-1.76,0.29-2.73c0-8-5.95-11.95-11.85-11.95
				c-5.95,0-11.85,3.95-11.85,11.95s5.9,11.95,11.85,11.95c1.51,0,3.07-0.24,4.49-0.78c-2.15-2.83-3.46-6.54-3.46-11.17
				c0-2.83,0.49-5.27,1.37-7.41l4.63,4.68c-0.2,0.83-0.29,1.76-0.29,2.73c0,8,5.95,11.95,11.9,11.95c5.9,0,11.85-3.95,11.85-11.95
				s-5.95-11.95-11.85-11.95c-1.56,0-3.07,0.24-4.54,0.78c2.15,2.83,3.46,6.54,3.46,11.17c0,2.83-0.49,5.27-1.37,7.41L161.21,44.69z
				"/>
			<path class="st7" d="M168.29,60.5c-3.32,0-6.54-0.81-9.32-2.34c-2.83,1.53-6.04,2.34-9.31,2.34c-4.79,0-9.26-1.65-12.57-4.64
				c-3.74-3.37-5.72-8.18-5.72-13.9s1.98-10.52,5.72-13.9c3.32-2.99,7.78-4.64,12.57-4.64c3.28,0,6.49,0.81,9.31,2.34
				c2.78-1.53,6-2.34,9.32-2.34c4.77,0,9.22,1.65,12.53,4.64c3.74,3.38,5.71,8.18,5.71,13.9c0,5.71-1.98,10.52-5.71,13.9
				C177.51,58.85,173.06,60.5,168.29,60.5z M158.97,56.59l0.34,0.2c2.65,1.54,5.76,2.35,8.98,2.35c8.13,0,16.88-5.37,16.88-17.17
				s-8.75-17.17-16.88-17.17c-3.22,0-6.32,0.81-8.98,2.35l-0.34,0.2l-0.34-0.19c-2.7-1.54-5.81-2.35-8.98-2.35
				c-8.15,0-16.93,5.37-16.93,17.17s8.78,17.17,16.93,17.17c3.17,0,6.28-0.81,8.98-2.35L158.97,56.59z M168.29,54.59
				c-3.29,0-6.36-1.12-8.64-3.15c-2.58-2.3-3.95-5.58-3.95-9.48c0-0.89,0.08-1.74,0.23-2.51l-3.62-3.66
				c-0.64,1.89-0.95,3.92-0.95,6.18c0,4.23,1.12,7.85,3.32,10.76l0.55,0.73l-0.85,0.32c-1.42,0.54-3.06,0.83-4.73,0.83
				c-3.29,0-6.35-1.12-8.61-3.15c-2.57-2.3-3.92-5.58-3.92-9.48c0-3.91,1.36-7.19,3.92-9.48c2.27-2.03,5.33-3.15,8.61-3.15
				c3.27,0,6.32,1.12,8.59,3.15c2.58,2.3,3.94,5.58,3.94,9.48c0,0.89-0.08,1.74-0.23,2.51l3.62,3.66c0.64-1.89,0.95-3.92,0.95-6.18
				c0-4.23-1.12-7.85-3.32-10.76l-0.56-0.73l0.87-0.32c1.49-0.55,3.09-0.82,4.77-0.82c3.27,0,6.32,1.12,8.59,3.15
				c2.58,2.3,3.94,5.58,3.94,9.48c0,3.9-1.36,7.18-3.94,9.48C174.61,53.48,171.56,54.59,168.29,54.59z M151.8,33.33l5.62,5.68
				l-0.09,0.37c-0.18,0.78-0.27,1.64-0.27,2.58c0,7.74,5.82,11.27,11.22,11.27c5.38,0,11.17-3.53,11.17-11.27
				s-5.79-11.27-11.17-11.27c-1.22,0-2.35,0.15-3.44,0.46c2.02,3.01,3.05,6.64,3.05,10.81c0,2.83-0.46,5.34-1.42,7.67l-0.39,0.95
				l-5.62-5.68l0.09-0.37c0.18-0.77,0.27-1.64,0.27-2.58c0-7.74-5.79-11.27-11.17-11.27c-5.38,0-11.17,3.53-11.17,11.27
				s5.79,11.27,11.17,11.27c1.18,0,2.34-0.16,3.4-0.46c-2.03-3.01-3.05-6.64-3.05-10.81c0-2.83,0.46-5.34,1.42-7.67L151.8,33.33z"/>
		</g>
		<g>
			<path class="st1" d="M189.99,59.03V58.4c2.54,0,2.54-2.59,2.54-6.44v-20c0-3.85,0-6.44-2.54-6.44v-0.63h13.32
				c7.71,0,11.56,5.12,11.56,10.29c0,3.85-2.15,7.66-6.49,9.37l5.02,7.32c0.05,0.1,0.1,0.15,0.1,0.2l3.02,4.39
				c0.98,1.17,1.95,1.95,3.22,1.95v0.63h-10.93V58.4c0.78,0,1.07-0.29,1.07-0.73c0-0.44-0.24-1.02-0.68-1.71l-7.12-10.54h-3.71v6.54
				c0,3.85,0,6.44,2.54,6.44v0.63H189.99z M198.38,39.86l4.93,0.05c3.71,0,5.56-2.39,5.56-4.73c0-2.39-1.85-4.78-5.56-4.78h-4.93
				V39.86z"/>
			<path class="st7" d="M220.43,59.72h-12.29v-2h0.68c0.23,0,0.34-0.03,0.39-0.05c0-0.13-0.06-0.53-0.57-1.33l-6.91-10.23h-2.66
				v5.86c0,4.27,0.15,5.76,1.86,5.76h0.68v2h-12.29v-2h0.68c1.7,0,1.85-1.49,1.85-5.76v-20c0-4.27-0.15-5.76-1.85-5.76h-0.68v-2h14
				c3.76,0,6.92,1.18,9.15,3.41c1.99,1.99,3.09,4.68,3.09,7.57c0,4.21-2.33,7.84-6.14,9.66l4.58,6.68l0.02,0.04
				c0.01,0.02,0.02,0.03,0.02,0.04c0.02,0.04,0.05,0.09,0.08,0.16l2.95,4.28c1,1.19,1.78,1.68,2.68,1.68h0.68V59.72z M210.4,58.35
				h7.13c-0.61-0.42-1.11-0.96-1.53-1.47l-0.04-0.05l-3.14-4.56v-0.05c0,0,0,0,0,0l-5.49-7.99l0.8-0.31
				c3.74-1.47,6.06-4.81,6.06-8.73c0-4.63-3.4-9.61-10.88-9.61h-11.3c0.39,0.37,0.67,0.89,0.86,1.54c0.34,1.22,0.34,2.9,0.34,4.85
				v20c0,1.95,0,3.63-0.34,4.85c-0.18,0.66-0.47,1.17-0.86,1.54h6.89c-0.39-0.37-0.67-0.89-0.86-1.54c-0.34-1.22-0.34-2.9-0.34-4.85
				v-7.22h4.75l7.33,10.85c0.53,0.83,0.79,1.51,0.79,2.08C210.57,57.81,210.55,58.08,210.4,58.35z M203.31,40.59l-5.61-0.06V29.72
				h5.61c1.9,0,3.5,0.58,4.64,1.69c1.03,1,1.6,2.34,1.6,3.78C209.55,37.87,207.4,40.59,203.31,40.59z M199.06,39.19l4.25,0.04
				c3.35,0,4.87-2.1,4.87-4.05c0-1.97-1.53-4.1-4.88-4.1h-4.25V39.19z"/>
		</g>
	</g>
	<g>
		<g>
			<path class="st0" d="M225.23,59.03V58.4c2.49,0,2.88-2.05,3.56-6.59l3.02-19.95c0.1-0.88,0.19-1.71,0.19-2.44
				c0-2.39-0.73-3.9-2.63-3.9v-0.63h6.73l12.2,24.49l12.15-24.49h6.78v0.63c-1.9,0-2.63,1.51-2.63,3.9c0,0.78,0.1,1.66,0.24,2.63
				l2.98,20.05c0.68,4.34,1.07,6.29,3.56,6.29v0.63h-10.93V58.4c1.56,0,2-0.98,2-2.54c0-1.07-0.2-2.39-0.39-3.9l-2.1-13.61
				l-6.68,13.61c-0.98,2.05-1.46,3.71-1.46,4.88c0,0.98,0.39,1.56,1.17,1.56v0.63h-9.27V58.4c0.73,0,1.02-0.59,1.02-1.51
				c0-1.27-0.59-3.17-1.41-4.88l-6.68-13.66l-2.1,13.61c-0.24,1.51-0.44,2.83-0.44,3.9c0,1.56,0.49,2.54,2,2.54v0.63H225.23z"/>
			<path class="st0" d="M272.05,59.72h-12.29v-2h0.68c0.87,0,1.32-0.29,1.32-1.86c0-0.88-0.14-1.96-0.31-3.21
				c-0.03-0.2-0.05-0.4-0.08-0.6l-1.77-11.46l-5.73,11.66c-1.15,2.42-1.39,3.82-1.39,4.58c0,0.88,0.33,0.88,0.49,0.88h0.68v2h-10.63
				v-2h0.68c0.15,0,0.18-0.04,0.21-0.09c0.05-0.08,0.13-0.28,0.13-0.74c0-1.1-0.53-2.9-1.35-4.58l-5.73-11.71l-1.77,11.46
				c-0.23,1.41-0.43,2.76-0.43,3.8c0,1.71,0.62,1.86,1.32,1.86h0.68v2h-12.24v-2h0.68c1.79,0,2.17-1.22,2.89-6.01l3.02-19.94
				l0.01-0.13c0.09-0.8,0.17-1.56,0.17-2.22c0-3.22-1.37-3.22-1.95-3.22h-0.68v-2h7.84l11.77,23.64l11.73-23.64h7.88v2h-0.68
				c-0.58,0-1.95,0-1.95,3.22c0,0.66,0.07,1.45,0.24,2.53l2.98,20.05c0.72,4.55,1.09,5.71,2.89,5.71h0.68V59.72z M262.39,58.35h6.77
				c-1.22-1.07-1.57-3.27-2.02-6.14l-2.98-20.05c-0.17-1.16-0.25-2-0.25-2.73c0-2.04,0.52-3.21,1.24-3.85h-4.28L248.3,50.91
				l-12.62-25.34h-4.23c0.72,0.65,1.24,1.82,1.24,3.85c0,0.73-0.09,1.52-0.18,2.37l-0.02,0.17l-3.02,19.95
				c-0.46,3.02-0.8,5.33-2.05,6.44h6.77c-0.07-0.07-0.14-0.16-0.2-0.24c-0.38-0.53-0.56-1.27-0.56-2.25c0-1.14,0.2-2.49,0.45-4.01
				l2.43-15.75l7.64,15.61c0.92,1.89,1.48,3.87,1.48,5.18c0,0.67-0.14,1.14-0.34,1.46h6.45c-0.24-0.35-0.4-0.85-0.4-1.51
				c0-1.3,0.51-3.04,1.53-5.17l7.64-15.56l2.43,15.77c0.03,0.21,0.05,0.41,0.08,0.6c0.17,1.29,0.32,2.41,0.32,3.38
				c0,1-0.17,1.72-0.54,2.24C262.53,58.19,262.46,58.28,262.39,58.35z"/>
		</g>
		<g>
			<path class="st0" d="M310.25,35.08v18.44h4.05c7.71,0,11.56-5.8,11.56-11.61S322,30.35,314.3,30.35h-32.83v8.88h5.66
				c3.85,0,6.44,0,6.44-2.54h0.63v10.54h-0.63c0-2.54-2.59-2.54-6.44-2.54h-5.66v8.88h9.17c3.85,0,7.17,0,7.17-2.54h0.63l-0.73,8
				h-24.63V58.4c2.54,0,2.54-2.59,2.54-6.44v-20c0-3.85,0-6.44-2.54-6.44v-0.63h41.46c11.61,0.1,17.41,8.59,17.41,17.07
				s-5.8,16.93-17.41,17.07h-12.68V58.4c2.54,0,2.54-2.59,2.54-6.44v-9.81c0-3.85,0-6.44-2.54-6.44v-0.63H310.25z"/>
			<path class="st0" d="M314.54,59.72h-13.37v-2h0.68c1.7,0,1.86-1.49,1.86-5.76v-9.81c0-4.26-0.15-5.76-1.86-5.76h-0.68v-2h9.75
				v18.44h3.37c7.48,0,10.88-5.66,10.88-10.93c0-5.24-3.4-10.88-10.88-10.88h-32.15v7.51h4.98c4.26,0,5.76-0.15,5.76-1.86v-0.68h2
				v11.9h-2v-0.68c0-1.7-1.49-1.86-5.76-1.86h-4.98v7.51h8.49c1.87,0,3.64,0,4.87-0.3c1.42-0.34,1.62-0.95,1.62-1.56v-0.68h2.06
				l-0.86,9.36h-25.94v-2h0.68c1.7,0,1.86-1.49,1.86-5.76v-20c0-4.27-0.15-5.76-1.86-5.76h-0.68v-2h42.15
				c5.58,0.05,10.27,1.99,13.57,5.61c2.92,3.22,4.53,7.53,4.53,12.14c0,4.61-1.61,8.91-4.53,12.12
				C324.82,57.7,320.13,59.65,314.54,59.72L314.54,59.72z M303.87,58.35h10.66c11.5-0.15,16.74-8.6,16.74-16.39
				c0-7.83-5.24-16.29-16.74-16.39l-39.44,0c0.39,0.37,0.67,0.89,0.86,1.54c0.34,1.22,0.34,2.9,0.34,4.85v20
				c0,1.95,0,3.63-0.34,4.85c-0.18,0.66-0.47,1.17-0.86,1.54h22l0.48-5.24c-0.43,0.36-1.01,0.63-1.74,0.8
				c-1.39,0.34-3.24,0.34-5.19,0.34h-9.85V44.01h6.34c1.95,0,3.63,0,4.85,0.34c0.66,0.18,1.17,0.47,1.54,0.86v-6.5
				c-0.37,0.39-0.89,0.67-1.54,0.86c-1.22,0.34-2.9,0.34-4.85,0.34h-6.34V29.67h33.51c3.77,0,6.95,1.33,9.18,3.83
				c1.98,2.22,3.06,5.21,3.06,8.41c0,3.21-1.09,6.2-3.06,8.43c-2.23,2.52-5.41,3.86-9.18,3.86h-4.73V35.76h-5.69
				c0.39,0.37,0.67,0.89,0.86,1.54c0.34,1.22,0.34,2.9,0.34,4.85v9.81c0,1.95,0,3.63-0.34,4.85
				C304.55,57.46,304.26,57.98,303.87,58.35z"/>
		</g>
		<g>
			<path class="st0" d="M336,59.03V58.4c2.54,0,2.54-2.59,2.54-6.44v-20c0-3.85,0-6.44-2.54-6.44v-0.63h10.93v0.63
				c-2.54,0-2.54,2.59-2.54,6.44v20c0,3.85,0,6.44,2.54,6.44v0.63H336z"/>
			<path class="st0" d="M347.61,59.72h-12.29v-2H336c1.7,0,1.86-1.49,1.86-5.76v-20c0-4.27-0.15-5.76-1.86-5.76h-0.68v-2h12.29v2
				h-0.68c-1.7,0-1.86,1.49-1.86,5.76v20c0,4.27,0.15,5.76,1.86,5.76h0.68V59.72z M338.01,58.35h6.89
				c-0.39-0.37-0.67-0.89-0.86-1.54c-0.34-1.22-0.34-2.9-0.34-4.85v-20c0-1.95,0-3.63,0.34-4.85c0.18-0.66,0.47-1.17,0.86-1.54
				h-6.89c0.39,0.37,0.67,0.89,0.86,1.54c0.34,1.22,0.34,2.9,0.34,4.85v20c0,1.95,0,3.63-0.34,4.85
				C338.69,57.46,338.4,57.98,338.01,58.35z"/>
		</g>
		<g>
			<path class="st0" d="M378.05,27.57v0.05l-1.9,10.44h-0.63c0-0.63-0.05-1.61-0.15-2.63c-0.88-3.9-4.34-5.37-7.17-5.46h-0.15
				c-7.76-0.05-11.66,5.95-11.66,12c0,6,3.85,12,11.51,12c3.32,0,7.51-1.66,8.44-5.17c0-0.1,0-0.2,0-0.34h0.68l1.02,7.85
				c0,0.05,0,0.05,0,0.05H378c-2.59,2.15-5.32,3.27-9.32,3.41c-0.54,0-1.02,0-1.56,0c-11.27-0.39-16.88-9.07-16.88-17.8
				c0-8.93,5.85-17.8,17.61-17.8c3.61,0,7.22,1.22,10.15,3.41H378.05z M399.61,24.89h-0.05h0.93h-0.05h4.59v0.63
				c-0.98,0-1.66,0.93-1.66,2.49c0,0.98,0.29,2.29,0.98,3.76l9.37,20.15v-0.1c0.49,1.02,0.83,1.9,1.22,2.68l0.49,1.12
				c0.88,1.76,1.71,2.78,3.32,2.78v0.63H407.8V58.4c1.12,0,1.51-0.54,1.51-1.46c0-1.17-0.73-2.98-1.61-4.98l-3.07-6.59h-9.22
				l-3.02,6.59c-0.93,2-1.66,3.81-1.66,4.98c0,0.93,0.39,1.46,1.51,1.46v0.63h-10.93V58.4c1.61,0,2.39-0.98,3.27-2.73l0.59-1.22
				c0.34-0.78,0.73-1.66,1.17-2.63v0.1l3.02-6.54h-23.05c-0.89,0-1.64-0.68-1.71-1.57l-0.55-6.43h0.63c0,2.54,3.27,2.54,7.12,2.54
				h20.15l3.76-8.15c0.68-1.46,0.98-2.78,0.98-3.76c0-1.56-0.68-2.49-1.66-2.49v-0.63H399.61z M397.95,39.91h4.2l-2.1-4.54
				L397.95,39.91z"/>
			<path class="st0" d="M368.69,60.45l-1.6,0c-5.43-0.19-9.98-2.27-13.16-6.01c-2.82-3.32-4.38-7.75-4.38-12.47
				c0-4.84,1.62-9.35,4.57-12.7c3.33-3.79,8.07-5.79,13.73-5.79c3.68,0,7.35,1.21,10.37,3.41h0.51v0.79l-2.02,11.06h-1.88v-0.68
				c0-0.66-0.05-1.6-0.14-2.53c-0.8-3.46-3.88-4.8-6.51-4.89h-0.13c-3.1-0.02-5.76,0.99-7.71,2.93c-2.08,2.06-3.27,5.12-3.27,8.39
				c0,5.45,3.39,11.32,10.83,11.32c3.23,0,6.91-1.57,7.76-4.58v-0.93h1.96l1.11,8.49v0.77h-0.49c-2.78,2.25-5.65,3.27-9.54,3.41
				L368.69,60.45z M367.13,59.08h1.54c3.53-0.13,6.14-1.05,8.65-3.06l-0.77-5.89c-1.49,2.96-5.3,4.51-8.65,4.51
				c-3.76,0-6.92-1.38-9.15-3.99c-1.97-2.3-3.05-5.39-3.05-8.69c0-3.63,1.34-7.04,3.67-9.36c2.19-2.17,5.15-3.32,8.58-3.32
				c0.03,0,0.06,0,0.1,0l0.17,0c1.7,0.06,3.35,0.56,4.67,1.41c1.58,1.03,2.65,2.55,3.11,4.41l1.31-7.2
				c-2.76-1.98-6.11-3.07-9.45-3.07c-11.63,0-16.93,8.88-16.93,17.12C350.92,49.93,355.99,58.69,367.13,59.08z M419.41,59.72h-12.29
				v-2h0.68c0.71,0,0.83-0.2,0.83-0.78c0-1.08-0.8-2.99-1.55-4.69l-2.89-6.18h-8.35l-2.84,6.19c-0.79,1.7-1.6,3.59-1.6,4.69
				c0,0.59,0.12,0.78,0.83,0.78h0.68v2h-12.29v-2h0.68c1.13,0,1.75-0.55,2.66-2.35l0.58-1.2c0.33-0.75,0.71-1.61,1.17-2.63l1.3-2.9
				v0.18l1.28-2.76h-21.99c-1.26,0-2.29-0.95-2.39-2.2l-0.61-7.17h2.06v0.68c0,0.61,0.19,1.22,1.6,1.56c1.22,0.3,2.98,0.3,4.84,0.3
				h19.71l3.57-7.75c0.79-1.7,0.91-2.91,0.91-3.47c0-0.83-0.26-1.81-0.98-1.81h-0.68v-2h11.36v2h-0.68c-0.72,0-0.98,0.97-0.98,1.81
				c0,0.57,0.12,1.77,0.91,3.47l8.07,17.35V48.8l1.3,2.72c0.24,0.5,0.43,0.95,0.62,1.38c0.2,0.46,0.39,0.89,0.59,1.29l0.02,0.03
				l0.48,1.1c0.91,1.81,1.56,2.39,2.7,2.39h0.68V59.72z M409.58,58.35h6.97c-0.79-0.62-1.31-1.54-1.75-2.43l-0.02-0.03l-0.4-0.92
				v0.03l-10.67-22.94c-0.67-1.44-1.04-2.87-1.04-4.04c0-1.12,0.31-1.92,0.76-2.44h-6.85c0.46,0.52,0.76,1.32,0.76,2.44
				c0,1.17-0.37,2.61-1.04,4.04l-3.94,8.54H371.8c-1.95,0-3.79,0-5.17-0.34c-0.72-0.18-1.3-0.45-1.73-0.81l0.37,4.29
				c0.05,0.54,0.49,0.95,1.04,0.95h24.12l-4.58,9.9c-0.02,0.04-0.04,0.09-0.06,0.13l-0.01,0.02l-0.13,0.26v0l-0.46,0.97
				c-0.45,0.9-0.95,1.78-1.7,2.38h6.96c-0.27-0.35-0.41-0.83-0.41-1.42c0-1.36,0.83-3.33,1.72-5.26l3.21-6.98h10.09l3.26,6.99
				c1.06,2.4,1.67,4.03,1.67,5.25C410,57.52,409.85,58,409.58,58.35z M403.21,40.59h-6.33l3.16-6.84L403.21,40.59z M399.01,39.23
				h2.06L400.05,37L399.01,39.23z"/>
		</g>
		<g>
			<path class="st0" d="M419.89,59.03V58.4c2.54,0,2.54-2.59,2.54-6.44v-20c0-3.85,0-6.44-2.54-6.44v-0.63h13.32
				c7.71,0,11.56,5.12,11.56,10.29c0,3.85-2.15,7.66-6.49,9.37l5.02,7.32c0.05,0.1,0.1,0.15,0.1,0.2l3.02,4.39
				c0.98,1.17,1.95,1.95,3.22,1.95v0.63h-10.93V58.4c0.78,0,1.07-0.29,1.07-0.73c0-0.44-0.24-1.02-0.68-1.71l-7.12-10.54h-3.71v6.54
				c0,3.85,0,6.44,2.54,6.44v0.63H419.89z M428.28,39.86l4.93,0.05c3.71,0,5.56-2.39,5.56-4.73c0-2.39-1.85-4.78-5.56-4.78h-4.93
				V39.86z"/>
			<path class="st0" d="M450.33,59.72h-12.29v-2h0.68c0.23,0,0.34-0.03,0.39-0.05c0-0.13-0.06-0.53-0.57-1.33l-6.92-10.23h-2.66
				v5.86c0,4.27,0.15,5.76,1.86,5.76h0.68v2h-12.29v-2h0.68c1.7,0,1.86-1.49,1.86-5.76v-20c0-4.27-0.15-5.76-1.86-5.76h-0.68v-2h14
				c3.76,0,6.92,1.18,9.15,3.41c1.99,1.99,3.09,4.68,3.09,7.57c0,4.21-2.33,7.84-6.14,9.66l4.58,6.67l0.02,0.04
				c0.01,0.02,0.02,0.03,0.02,0.04c0.02,0.04,0.05,0.09,0.08,0.16l2.95,4.28c1,1.19,1.78,1.68,2.68,1.68h0.68V59.72z M440.31,58.35
				h7.13c-0.61-0.42-1.11-0.96-1.53-1.47l-0.04-0.05l-3.14-4.56v-0.05c0,0,0,0,0,0l-5.49-7.99l0.8-0.31
				c3.74-1.47,6.06-4.81,6.06-8.73c0-4.63-3.4-9.61-10.88-9.61h-11.3c0.39,0.37,0.67,0.89,0.86,1.54c0.34,1.22,0.34,2.9,0.34,4.85
				v20c0,1.95,0,3.63-0.34,4.85c-0.18,0.66-0.47,1.17-0.86,1.54h6.89c-0.39-0.37-0.67-0.89-0.86-1.54c-0.34-1.22-0.34-2.9-0.34-4.85
				v-7.22h4.75l7.33,10.85c0.53,0.83,0.79,1.51,0.79,2.08C440.48,57.81,440.45,58.08,440.31,58.35z M433.21,40.59l-5.61-0.06V29.72
				h5.61c1.9,0,3.5,0.58,4.64,1.69c1.03,1,1.6,2.34,1.6,3.78C439.45,37.87,437.31,40.59,433.21,40.59z M428.96,39.19l4.25,0.04
				c3.35,0,4.87-2.1,4.87-4.05c0-1.97-1.53-4.1-4.88-4.1h-4.25V39.19z"/>
		</g>
		<g>
			<path class="st0" d="M475.74,24.89v8h-0.63c0-2.54-2.59-2.54-6.44-2.54h-9.17v8.88h5.66c3.85,0,6.44,0,6.44-2.54h0.63v10.54
				h-0.63c0-2.54-2.59-2.54-6.44-2.54h-5.66v8.88h9.17c3.85,0,7.17,0,7.17-2.54h0.63l-0.73,8h-24.63V58.4
				c2.54,0,2.54-2.59,2.54-6.44v-20c0-3.85,0-6.44-2.54-6.44v-0.63H475.74z"/>
			<path class="st0" d="M476.37,59.72h-25.94v-2h0.68c1.7,0,1.86-1.49,1.86-5.76v-20c0-4.27-0.15-5.76-1.86-5.76h-0.68v-2h26v9.36
				h-2v-0.68c0-1.7-1.49-1.86-5.76-1.86h-8.49v7.51h4.98c4.27,0,5.76-0.15,5.76-1.86v-0.68h2v11.9h-2v-0.68
				c0-1.7-1.49-1.86-5.76-1.86h-4.98v7.51h8.49c1.87,0,3.64,0,4.87-0.3c1.42-0.34,1.62-0.95,1.62-1.56v-0.68h2.06L476.37,59.72z
				 M453.13,58.35h22l0.48-5.24c-0.43,0.36-1.01,0.63-1.74,0.8c-1.39,0.34-3.24,0.34-5.19,0.34h-9.85V44.01h6.34
				c1.95,0,3.63,0,4.85,0.34c0.66,0.18,1.17,0.47,1.54,0.86v-6.5c-0.37,0.39-0.89,0.67-1.54,0.86c-1.22,0.34-2.9,0.34-4.85,0.34
				h-6.34V29.67h9.85c1.95,0,3.63,0,4.85,0.34c0.66,0.18,1.17,0.47,1.54,0.86v-5.3h-21.94c0.39,0.37,0.67,0.89,0.86,1.54
				c0.34,1.22,0.34,2.9,0.34,4.85v20c0,1.95,0,3.63-0.34,4.85C453.8,57.46,453.51,57.98,453.13,58.35z"/>
		</g>
	</g>
</g>
</svg>
