<?xml version="1.0" encoding="UTF-8"?>
<svg xmlns="http://www.w3.org/2000/svg" width="54" height="54" viewBox="0 0 54 54" fill="none">
  <circle cx="27" cy="27" r="27" fill="#FFECEC"></circle>
  <path d="M24.6667 23.6666C24.6667 23.0477 24.9126 22.4543 25.3502 22.0167C25.7877 21.5791 26.3812 21.3333 27.0001 21.3333C27.6189 21.3333 28.2124 21.5791 28.65 22.0167C29.0876 22.4543 29.3334 23.0477 29.3334 23.6666C29.3334 24.2854 29.0876 24.8789 28.65 25.3165C28.2124 25.7541 27.6189 25.9999 27.0001 25.9999C26.3812 25.9999 25.7877 25.7541 25.3502 25.3165C24.9126 24.8789 24.6667 24.2854 24.6667 23.6666Z" fill="#F00109"></path>
  <path fill-rule="evenodd" clip-rule="evenodd" d="M17.6666 23.6667C17.667 22.22 18.0038 20.7933 18.6503 19.4991C19.2967 18.2049 20.2351 17.0787 21.3915 16.2094C22.5478 15.3401 23.8904 14.7515 25.3133 14.4901C26.7361 14.2287 28.2002 14.3016 29.5901 14.703C30.9799 15.1045 32.2574 15.8236 33.3217 16.8034C34.3859 17.7833 35.2079 18.9971 35.7226 20.3491C36.2372 21.7012 36.4306 23.1543 36.2874 24.5938C36.1441 26.0334 35.6682 27.4199 34.8972 28.644L38.5332 34.94C38.6291 35.1065 38.675 35.297 38.6655 35.4889C38.6559 35.6808 38.5913 35.8658 38.4794 36.0219C38.3674 36.178 38.2129 36.2986 38.0342 36.3692C37.8555 36.4398 37.6603 36.4574 37.4719 36.42L33.9839 35.7267L32.8399 39.0947C32.7782 39.2768 32.6653 39.4373 32.5147 39.5568C32.3641 39.6764 32.1822 39.75 31.9909 39.7689C31.7995 39.7878 31.6068 39.751 31.4357 39.6631C31.2647 39.5753 31.1226 39.4399 31.0266 39.2733L27.3999 32.992C27.1334 33.0033 26.8665 33.0033 26.5999 32.992L22.9732 39.2733C22.8774 39.44 22.7355 39.5755 22.5647 39.6635C22.3938 39.7516 22.2012 39.7886 22.0098 39.77C21.8185 39.7515 21.6366 39.6781 21.4858 39.5588C21.3351 39.4395 21.2219 39.2793 21.1599 39.0973L20.0119 35.7373L16.5266 36.4213C16.3382 36.4585 16.1432 36.4406 15.9648 36.3699C15.7863 36.2991 15.632 36.1785 15.5203 36.0225C15.4085 35.8664 15.344 35.6815 15.3345 35.4898C15.325 35.2981 15.3708 35.1077 15.4666 34.9413L19.1026 28.644C18.1616 27.1546 17.6636 25.4284 17.6666 23.6667ZM20.4479 30.3133C21.5728 31.4242 22.9616 32.2308 24.4839 32.6573L22.3412 36.368L21.6212 34.2627C21.5429 34.034 21.3845 33.8414 21.1751 33.7206C20.9658 33.5997 20.7198 33.5588 20.4826 33.6053L18.2999 34.0347L20.4479 30.3133ZM29.5159 32.6573L31.6559 36.3627L32.3719 34.2547C32.4498 34.025 32.6084 33.8314 32.8184 33.71C33.0284 33.5885 33.2753 33.5476 33.5132 33.5947L35.6972 34.0293L33.5519 30.3133C32.427 31.4242 31.0382 32.2308 29.5159 32.6573ZM26.9999 19.3333C25.8506 19.3333 24.7484 19.7899 23.9358 20.6026C23.1231 21.4152 22.6666 22.5174 22.6666 23.6667C22.6666 24.816 23.1231 25.9182 23.9358 26.7308C24.7484 27.5435 25.8506 28 26.9999 28C28.1492 28 29.2514 27.5435 30.064 26.7308C30.8767 25.9182 31.3332 24.816 31.3332 23.6667C31.3332 22.5174 30.8767 21.4152 30.064 20.6026C29.2514 19.7899 28.1492 19.3333 26.9999 19.3333Z" fill="#F00109"></path>
</svg>
