<?xml version="1.0" encoding="UTF-8"?>
<svg xmlns="http://www.w3.org/2000/svg" width="60" height="60" viewBox="0 0 60 60" fill="none">
  <circle cx="30" cy="30" r="30" fill="#F00109"></circle>
  <path d="M19.3335 39.9998V19.9998C19.3335 19.1158 19.6847 18.2679 20.3098 17.6428C20.9349 17.0177 21.7828 16.6665 22.6668 16.6665H40.6668V43.3332H22.6668C21.7828 43.3332 20.9349 42.982 20.3098 42.3569C19.6847 41.7317 19.3335 40.8839 19.3335 39.9998ZM19.3335 39.9998C19.3335 39.1158 19.6847 38.2679 20.3098 37.6428C20.9349 37.0177 21.7828 36.6665 22.6668 36.6665H40.6668" stroke="white" stroke-width="2" stroke-linecap="round" stroke-linejoin="round"></path>
  <path d="M30.0002 27.3333C31.4729 27.3333 32.6668 26.1394 32.6668 24.6667C32.6668 23.1939 31.4729 22 30.0002 22C28.5274 22 27.3335 23.1939 27.3335 24.6667C27.3335 26.1394 28.5274 27.3333 30.0002 27.3333Z" stroke="white" stroke-width="2" stroke-linecap="round" stroke-linejoin="round"></path>
  <path d="M34 31.3335C34 30.2726 33.5786 29.2552 32.8284 28.5051C32.0783 27.7549 31.0609 27.3335 30 27.3335C28.9391 27.3335 27.9217 27.7549 27.1716 28.5051C26.4214 29.2552 26 30.2726 26 31.3335" stroke="white" stroke-width="2" stroke-linecap="round" stroke-linejoin="round"></path>
</svg>
