<svg width="80" height="80" viewBox="0 0 80 80" fill="none" xmlns="http://www.w3.org/2000/svg">
<g opacity="0.2">
<rect width="80" height="80" fill="white"/>
<path d="M29.9138 16.7072L32.3656 20.4909C27.0179 23.4762 23.7603 26.8867 21.729 30.1876C19.6404 33.5817 18.8656 36.8324 18.4264 39.3207L18.2507 40.3161L19.1485 39.8518C20.8315 38.9814 23.0728 38.6604 25.3029 38.8672L25.3029 38.8672C31.0718 39.4018 35.604 44.134 35.604 50.0007C35.604 56.1678 30.6044 61.1673 24.4372 61.1673C21.0045 61.1673 17.7138 59.5942 15.642 57.3948L15.278 57.7377L15.642 57.3948C12.2999 53.8472 10.5 49.8802 10.5 43.3687C10.5 32.0758 18.3469 21.8732 29.9138 16.7072ZM63.2472 16.7072L65.699 20.4909C60.3513 23.4762 57.0936 26.8867 55.0623 30.1876C52.9737 33.5817 52.1989 36.8324 51.7596 39.3207L51.5839 40.3161L52.4817 39.8518C54.1647 38.9814 56.4062 38.6604 58.6362 38.8672L58.6362 38.8672C64.4052 39.4018 68.9373 44.134 68.9373 50.0007C68.9373 56.1678 63.9379 61.1673 57.7707 61.1673C54.3378 61.1673 51.0472 59.5942 48.9753 57.3948C45.6333 53.8472 43.8333 49.8802 43.8333 43.3687C43.8333 32.0758 51.6802 21.8732 63.2472 16.7072Z" fill="#E3E6E9" stroke="#6F7680"/>
</g>
</svg>
