<?xml version="1.0" encoding="UTF-8"?>
<svg xmlns="http://www.w3.org/2000/svg" width="80" height="80" viewBox="0 0 80 80" fill="none">
  <circle cx="40" cy="40" r="40" fill="#FFECEC"></circle>
  <path d="M36.845 24.3307C34.6257 23.6123 32.2133 24.6116 31.1521 26.6887L29.8763 29.1859C29.7247 29.4826 29.4834 29.7239 29.1867 29.8755L26.6895 31.1514C24.6123 32.2126 23.613 34.625 24.3314 36.8442L25.1951 39.5121C25.2977 39.8291 25.2977 40.1704 25.1951 40.4874L24.3314 43.1553C23.613 45.3745 24.6123 47.7869 26.6895 48.8481L29.1867 50.1239C29.4834 50.2756 29.7247 50.5169 29.8763 50.8136L31.1521 53.3107C32.2133 55.3878 34.6257 56.3871 36.845 55.6687L39.5129 54.8052C39.8299 54.7026 40.1711 54.7026 40.488 54.8052L43.156 55.6687C45.3752 56.3871 47.7877 55.3878 48.8488 53.3107L50.1247 50.8136C50.2762 50.5169 50.5175 50.2756 50.8142 50.1239L53.3115 48.8481C55.3886 47.7869 56.3879 45.3745 55.6695 43.1553L54.8058 40.4874C54.7032 40.1704 54.7032 39.8291 54.8058 39.5121L55.6695 36.8442C56.3879 34.625 55.3886 32.2126 53.3115 31.1514L50.8142 29.8755C50.5175 29.7239 50.2762 29.4826 50.1247 29.1859L48.8488 26.6887C47.7877 24.6116 45.3752 23.6123 43.156 24.3307L40.488 25.1943C40.1711 25.2969 39.8299 25.2969 39.5129 25.1943L36.845 24.3307ZM33.972 28.1294C34.3258 27.437 35.1299 27.104 35.8697 27.3434L38.5375 28.2071C39.4885 28.5149 40.5124 28.5149 41.4634 28.2071L44.1313 27.3434C44.871 27.104 45.6752 27.437 46.0289 28.1294L47.3048 30.6266C47.7595 31.5168 48.4834 32.2407 49.3736 32.6955L51.8708 33.9713C52.5632 34.3251 52.8963 35.1292 52.6568 35.8689L51.7932 38.5369C51.4852 39.4879 51.4852 40.5116 51.7932 41.4626L52.6568 44.1305C52.8963 44.8702 52.5632 45.6744 51.8708 46.0281L49.3736 47.304C48.4834 47.7587 47.7595 48.4828 47.3048 49.3728L46.0289 51.87C45.6752 52.5624 44.871 52.8955 44.1313 52.656L41.4634 51.7924C40.5124 51.4846 39.4885 51.4846 38.5375 51.7924L35.8697 52.656C35.1299 52.8955 34.3258 52.5624 33.972 51.87L32.6962 49.3728C32.2415 48.4828 31.5175 47.7587 30.6274 47.304L28.1302 46.0281C27.4378 45.6744 27.1047 44.8702 27.3442 44.1305L28.2078 41.4626C28.5156 40.5116 28.5156 39.4879 28.2078 38.5369L27.3442 35.8689C27.1047 35.1292 27.4378 34.3251 28.1302 33.9713L30.6274 32.6955C31.5175 32.2407 32.2415 31.5168 32.6962 30.6266L33.972 28.1294ZM31.7031 39.6156L38.4207 46.3331L49.6166 35.1373L47.3774 32.8981L38.4207 41.8548L33.9423 37.3763L31.7031 39.6156Z" fill="#F00109"></path>
</svg>
