<?xml version="1.0" encoding="UTF-8"?>
<svg xmlns="http://www.w3.org/2000/svg" width="80" height="80" viewBox="0 0 80 80" fill="none">
  <circle cx="40" cy="40" r="40" fill="#FFECEC"></circle>
  <path d="M39.9999 32.0833C46.9956 32.0833 52.6666 37.7543 52.6666 44.75C52.6666 51.7456 46.9956 57.4166 39.9999 57.4166C33.0043 57.4166 27.3333 51.7456 27.3333 44.75C27.3333 37.7543 33.0043 32.0833 39.9999 32.0833ZM39.9999 35.25C34.7532 35.25 30.4999 39.5033 30.4999 44.75C30.4999 49.9967 34.7532 54.25 39.9999 54.25C45.2466 54.25 49.4999 49.9967 49.4999 44.75C49.4999 39.5033 45.2466 35.25 39.9999 35.25ZM39.9999 37.625L42.0939 41.8678L46.7763 42.5482L43.3881 45.8509L44.1878 50.5143L39.9999 48.3125L35.812 50.5143L36.6118 45.8509L33.2236 42.5482L37.906 41.8678L39.9999 37.625ZM49.4999 24.1666V28.9166L47.3412 30.7178C45.5899 29.7997 43.6455 29.1998 41.585 28.995L41.5833 24.165L49.4999 24.1666ZM38.4166 24.165L38.4161 28.9948C36.3557 29.1995 34.4115 29.7991 32.6602 30.7169L30.4999 28.9166V24.1666L38.4166 24.165Z" fill="#F00109"></path>
</svg>
