<svg width="22" height="22" viewBox="0 0 22 22" fill="none" xmlns="http://www.w3.org/2000/svg">
<path d="M14.6441 6.11877H16.2082C17.072 6.11877 17.7723 6.81903 17.7723 7.68284V12.3996V17.0672C17.7723 17.931 17.072 18.6313 16.2082 18.6313H6.82383C5.96002 18.6313 5.25977 17.931 5.25977 17.0672V7.68284C5.25977 6.81903 5.96002 6.11877 6.82383 6.11877H8.39993" stroke="white" stroke-width="1.5"/>
<path fill-rule="evenodd" clip-rule="evenodd" d="M11.3827 3.4375H11.6509C12.4063 3.4375 13.0249 4.02327 13.0773 4.76538L13.0809 4.8675H14.2539C14.4699 4.8675 14.6449 5.04256 14.6449 5.25852V6.62148C14.6449 6.83744 14.4699 7.0125 14.2539 7.0125H8.77969C8.56374 7.0125 8.38867 6.83744 8.38867 6.62148V5.25852C8.38867 5.04256 8.56374 4.8675 8.77969 4.8675H9.95273C9.95273 4.07773 10.593 3.4375 11.3827 3.4375Z" stroke="white" stroke-width="1.5" stroke-linejoin="round"/>
<path d="M8.38867 11.0344H14.6449" stroke="white" stroke-width="1.5" stroke-linecap="round" stroke-linejoin="round"/>
<path d="M8.38867 14.6094H11.9637" stroke="white" stroke-width="1.5" stroke-linecap="round" stroke-linejoin="round"/>
</svg>
